<?xml version="1.0" encoding="utf-8"?>
<!-- Generator: Adobe Illustrator 25.2.0, SVG Export Plug-In . SVG Version: 6.00 Build 0)  -->
<svg version="1.1" id="Layer_2_1_" xmlns="http://www.w3.org/2000/svg" xmlns:xlink="http://www.w3.org/1999/xlink" x="0px" y="0px"
	 viewBox="0 0 914.1 896.1" style="enable-background:new 0 0 914.1 896.1;" xml:space="preserve">
<style type="text/css">
	.st0{fill:#E5EDFF;}
	.st1{fill:none;stroke:#000000;stroke-width:7.24;stroke-linecap:round;stroke-linejoin:round;}
	.st2{fill:#5178E1;}
	.st3{fill:#FFFFFF;}
	.st4{fill:none;stroke:#FFFFFF;stroke-width:7.24;stroke-miterlimit:10;}
	.st5{fill:none;}
	.st6{fill:#11223F;}
	.st7{fill:none;stroke:#000000;stroke-width:7.24;stroke-miterlimit:10;}
</style>
<g>
	<path class="st0" d="M617.7,452c0,0,51.7,43.6,69.9,163.4c0,0,16.6,66.6-1.6,134.9c0,0-1,83.2-63.1,114.5c0,0-55.5,17.3-74.9-37.6
		c0,0-24.8-75.9-7.4-123.1l-147.2,1.3c0,0-21.6,3.5-16.9-16.9l48.3-207.2l4.2-17.9c0,0,1.3-10.6,18.8-9.1h140.7l12.6,4.1L617.7,452z
		"/>
	<path class="st0" d="M267.7,543c0,0,5.2-39.6-25-68.3c0,0-13.8-26.9-60.4-25.3c0,0-38.5,49.9-44.7,73.6c0,0-27.7,66.2-29.5,86.6
		c0,0-14.5,61.3-15.7,81.1c0,0-3.3,62.4,9.9,96.5c0,0,11.2,65.8,72.7,69.6c0,0,54,2.1,96.2-43.4c0,0,27.9-34,35.2-56.1
		c0,0,18.9-58.6,69.4-74.5l22.6-93.4c0,0-32.1-2.9-61.7,17.6l-86.2,60.5c0,0-33.4-50.7,2.9-100.2C253.3,567.5,267.4,546.5,267.7,543
		z"/>
	<path class="st0" d="M367.2,347.3c0,0-79.4,7.1-89.4,25.1c0,0,46.1,63.6,130.2,70c0,0,77.8,8.1,149.3-47.5c0,0-40-28.9-99-41v-42.8
		c0,0,33.2-15.2,38.3-60.1c0,0,11.2-59.6-26.5-59.3c0,0-37.1-6.6-64.2,10.4c0,0-14.9,15.3-24.2,5.9c0,0-8.9-18.4-18.6,0.9
		c0,0-6.2,18.4,10.3,30.5c0,0,31.4-1.3,32.5,30.2c0,0,0,31.8-29,28.4L367.2,347.3z"/>
	<path class="st1" d="M419.4,143.6V35.8c0-15.4-12.5-27.9-27.9-27.9H34.6C19.2,7.9,6.7,20.4,6.7,35.8v506.6
		c0,15.4,12.5,27.9,27.9,27.9h356.8c3.5,0,6.9-0.6,10.1-1.9"/>
	<path class="st2" d="M44.2,24.9h337.7c13.8,0,25,11.2,25,24.9v478.4c0,13.8-11.2,25-25,25H44.2c-13.8,0-24.9-11.2-24.9-25V49.9
		C19.2,36.1,30.4,24.9,44.2,24.9z"/>
	<path class="st2" d="M54.5,65.8h321.2c6.9,0,12.5,5.6,12.5,12.5v74c0,6.9-5.6,12.5-12.5,12.5H54.5c-6.9,0-12.5-5.6-12.5-12.5v-74
		C42,71.4,47.6,65.8,54.5,65.8z"/>
	<ellipse transform="matrix(0.1602 -0.9871 0.9871 0.1602 82.8986 291.9556)" class="st3" cx="213" cy="97.3" rx="10.2" ry="10.2"/>
	<path class="st3" d="M184.4,143.6c0-15.8,12.8-28.6,28.6-28.6s28.6,12.8,28.6,28.6H184.4z"/>
	<path class="st3" d="M215.1,270.7c-30.4,0-55.1,24.7-55.2,55.1c0,30.4,24.7,55.1,55.1,55.2c30.4,0,55.1-24.7,55.2-55.1
		c0,0,0,0,0-0.1C270.2,295.4,245.5,270.8,215.1,270.7z M215.1,367.6c-4.4,0-8-3.6-8-8c0-4.4,3.6-8,8-8c4.4,0,8,3.6,8,8
		C223.2,364,219.5,367.6,215.1,367.6z M225.3,305.6c-1.7,11.9-3.2,24.5-6.7,36.1c-0.9,2.8-6.1,2.8-7,0c-2.5-8.7-4.4-17.6-5.8-26.6
		c-1.1-6.5-4.9-17.1-1.2-23.5c3.2-5.7,12.3-6.4,17.5-3.4C228.6,292,226.1,299.8,225.3,305.6L225.3,305.6z"/>
	<line class="st4" x1="76.7" y1="208.9" x2="345.9" y2="208.9"/>
	<line class="st4" x1="76.7" y1="235.4" x2="345.9" y2="235.4"/>
	<line class="st4" x1="76.7" y1="406" x2="345.9" y2="406"/>
	<line class="st4" x1="139.2" y1="431.1" x2="283.3" y2="431.1"/>
	<path class="st0" d="M105.3,595.2c0,0,47.9-190.3,197.1-236.8l60.6-14.5c0,0,9.6-42.8,6.1-47.3s-10.8-13.7-24.1-11.7
		s-47.6,2.6-56.4-39.3s23.7-141.7,108.1-156.7s86.4,47.1,86.4,47.1l-62,143.7l9.6,115.9l1.2,172.7L105.3,595.2z"/>
	<rect x="67.8" y="83.6" class="st5" width="645.9" height="812.5"/>
	<path class="st6" d="M620.8,448.2c-1,0.3-13.8,4-18.8,12.8c-2-4.1-6.1-6.8-10.7-6.8H441.5c-5.5,0-10.3,3.8-11.5,9.1l-29.5,126.5
		c-2-0.4-4-0.6-6.1-0.8l-69.6-17.4c-6.2-1.6-12.5,1.9-14.7,7.9c-0.5,1.3-0.7,2.7-0.7,4.1c0,6.5,5,11.9,11.5,12.4l32.9,2.1
		c-31.7,14.9-70.3,43.4-102.5,69.5c-31.3-49.1-1.9-98.1,20.2-124.5c-2.9-29.1-17.3-96.7-89.3-94.9c24.8-31.8,55.8-59.1,94.1-77.4
		c131.4,145.6,281.6,26.6,284.8,24C583.6,409.5,603.8,427.5,620.8,448.2"/>
	<path class="st6" d="M607.2,865.8V891H173.4v-35.6c16.9,1,34.7-3,50.9-10.3c20.5-9.3,38.1-23.8,53.3-40.3
		c15.5-17.1,24.1-40.8,34-61.4c14.9-31,34.6-53.2,65.9-62.5l-2,8.6c-1.5,6.4,2.5,12.7,8.8,14.2c0.9,0.2,1.8,0.3,2.6,0.3h150.6
		C534.4,729.9,521.8,871.9,607.2,865.8"/>
	<path class="st6" d="M537.5,204.1c-0.1,13.5-1.9,26.8-5.2,39.9c-3.1,12.6-13.3,22.2-26.1,24.6c-0.3-9.1-4.1-17-10-22
		c0.5-7.7,0.5-15.4-0.2-23.1c-0.4-5.1-1-9.8-1.6-14c-0.4-2.4-0.9-4.8-1.7-7.1c-2-2.2-4.4-4-7-5.3c-9.3-5.2-28.4-10.8-63.7-2.6
		c-5.8,1.3-11.2,3.8-15.9,7.4c-0.1,0.1-0.2,0.1-0.3,0.2c-3.2,2.9-7.3,6.7-11.5,8.6c-4.4,2-8.9,2.1-12.7-2.6
		c-0.1-0.1-0.1-0.2-0.2-0.3c-2-2.6-3.9-6-7.4-6.7c-7.4-1.4-11.1,6-12,12.2c-0.8,5.8,0.9,10.8,3.3,15.6c2.1,3.9,4.8,7.5,8,10.5
		c0.8,0.8,1.6,1.7,2.3,2.6c-0.3,0.1-0.6,0.1-0.9,0.3c-0.7,0.2-1.4,0.5-2,0.8c-9,4-15.4,14.2-15.5,26.1c0,0.4-15.1,0.1-17,0
		c-7.4-0.7-14.6-2.8-19.8-8.4c-14.7-15.8-14.6-39.1-8.6-57.4c5.7-17.4,13-34.3,22.5-49.9c20.7-33.8,52.7-58.7,93.3-60.9
		c9.7-0.5,19.5,0.1,29.1,1.7c4.5,0.7,9,1.7,13.5,3C511.5,115.3,537.8,156.3,537.5,204.1"/>
	<path class="st2" d="M513.5,589.2c-4.9,12.5-16.5,19.7-26,16s-13.2-16.8-8.3-29.4s16.5-19.7,26-16
		C514.7,563.6,518.4,576.7,513.5,589.2"/>
	<path class="st7" d="M538.7,701.3c0,0-26.6,185.1,79.7,164.6C724,845.5,764,415.7,458.2,353.8"/>
	<path class="st7" d="M290,523.1c0,0-85.7,72.3-39.5,144.6"/>
	<path class="st7" d="M540.6,649.9c-1.5,0.1-3.6-0.9-5-1.3c-1.8-0.5-3.6-1-5.4-1.5c-10.4-3.3-20.3-8.2-29.1-14.7
		c-2-1.4-5.6-2.3-8-1.4c-2.8,1-4.8,3.5-5.2,6.4c-0.8,5.2,2.9,10.2,6.9,13.5c4.7,3.9,9.6,7.6,15.3,9.9c5.5,2.2,11.2,4,17,5.2
		c2.6,0.6,5.3,1,7.9,1.7"/>
	<path class="st7" d="M573.5,599.8c1.1,5.7,1.9,11.6,1.3,17.4c-0.5,4.9-2.2,10.6-7.7,11.8c-1,0.3-2.1,0.4-3.2,0.3
		c-20.5-1.2-37.4-8.3-56.7-22.3c-19.3-14-26.1,18.2-8.5,23.9"/>
	<path class="st7" d="M499.5,654.7c-0.5-0.4-0.9-0.8-1.3-1.3c-9.6-10-11.3,10.1-1.3,16.1l1.3,0.8c0.7,0.3,1.4,0.6,2.1,1
		c0.3,0.1,0.7,0.2,1.1,0.3c9.1,4,18.8,6.6,28.4,9.2c-9.5-3.1-18.9-6.1-28.4-9.2c-0.8-0.3-1.6-0.7-2.4-1.1c-0.3-0.1-0.5-0.2-0.8-0.2
		c-0.3-0.2-0.7-0.1-1.1,0.1c-0.2,0.2-0.4,0.4-0.5,0.7c-1.5,3.7-0.3,8.4,1.7,11.7c2.1,3.5,5.7,6.2,9.2,8.2
		c9.5,5.3,20.5,8.5,31.1,10.3c2,0.4,4,0.5,6,0.4"/>
	<path class="st7" d="M630.4,724.7c0,0-32.6-55.5-36.2-103.8c-2.2-29.9-11-36.2-17.3-36.7"/>
	<path class="st7" d="M567.2,629l6.3-29.2l3.4-15.6L602,468.5c1.4-6.4-2.7-12.7-9.1-14c-0.8-0.2-1.6-0.3-2.5-0.3H440.6
		c-5.5,0-10.3,3.8-11.5,9.1l-29.5,126.5L378,682.2l-2,8.7c-1.5,6.4,2.5,12.7,8.9,14.2c0.9,0.2,1.7,0.3,2.6,0.3h150.6"/>
	<path class="st2" d="M381.4,204.6c0,0,7.9-33.6,52.7-38.1s56,29,56,29l-1.4,3.4c0,0-58.9-23.6-91.4,10.1
		C397.3,209,385.6,214.3,381.4,204.6"/>
	<path class="st7" d="M393.5,589.1l-69.6-17.4c-6.6-1.6-13.3,2.4-14.9,9s2.4,13.3,9,14.9c0.7,0.2,1.4,0.3,2.1,0.3l32.9,2.2"/>
	<path class="st7" d="M560.3,394.8c0,0-152.1,123.2-284.9-24"/>
	<path class="st7" d="M270.6,543c-2.9-29.1-17.3-96.8-89.4-94.9"/>
	<path class="st7" d="M619.9,448.1c0,0-13.6,3.7-18.8,12.9"/>
	<line class="st7" x1="67.8" y1="892.5" x2="713.7" y2="892.5"/>
	<path class="st2" d="M496.2,246.6c6.1,5.1,10,13.5,10,22.9c0,15.7-10.9,28.4-24.4,28.4c-1.5,0-3-0.2-4.5-0.5
		C492.9,285.4,496.1,246.6,496.2,246.6"/>
	<path class="st7" d="M407.4,310c15.3,7.6,33.1,8.3,49,1.9c44.2-18.5,42.5-72.8,37.9-102.4c-0.4-2.4-0.9-4.8-1.6-7.1 M492.7,202.3
		c-5.1-16.9-18.3-30.7-35.7-34.6c-33.8-7.6-64.6,11.5-77.4,37.3"/>
	<path class="st7" d="M493.1,202.9c0,0-0.1-0.2-0.4-0.5 M492.7,202.3c-3-3.4-20.4-19.5-70.6-7.9c-5.8,1.3-11.2,3.8-15.9,7.4
		c-0.1,0.1-0.2,0.1-0.3,0.2"/>
	<path class="st7" d="M359.1,284.9h-24.9c-18,0-32.2-16.4-38.4-31.9c-8.7-21.7-3.1-43.9,4.7-65c6.6-17.6,14.9-34.8,25.9-50.1
		C351,103.5,388.1,84,430.7,87.6c3.8,0.3,7.5,0.8,11.3,1.4c57.2,9.3,95.8,57.1,95.5,115.1c-0.1,13.5-1.9,26.9-5.2,39.9
		c-3.1,12.6-13.4,22.2-26.1,24.6"/>
	<path class="st7" d="M375.5,242c-0.7-0.9-1.4-1.8-2.3-2.6c-3.2-3-5.9-6.6-8-10.5c-2.5-4.8-4.2-9.9-3.3-15.6
		c0.9-6.2,4.5-13.6,12-12.2c3.5,0.7,5.4,4.1,7.4,6.7c7.7,10,18.4-0.1,24.9-6.1"/>
	<path class="st7" d="M496.2,246.6c6.1,5.1,10,13.5,10,22.9c0,15.7-10.9,28.4-24.4,28.4c-1.5,0-3-0.2-4.5-0.5"/>
	<path class="st7" d="M444,265.9c5.5,3.7,18.6,6.7,16-4.2c-3.2-12.9-7.5-40.4,18.8-42.5c0,0,11.5,0.5,17.2,4.4"/>
	<path class="st7" d="M453.8,287.5c0,0-13.2,7-19.7-7"/>
	<path d="M427.1,238c-0.5,4.4,1.2,8.3,3.9,8.6s5.2-3,5.7-7.5s-1.2-8.3-3.9-8.6S427.6,233.6,427.1,238"/>
	<path d="M470.1,240.6c-0.5,4.4,1.2,8.3,3.9,8.6s5.2-3,5.7-7.5s-1.2-8.3-3.9-8.6S470.6,236.2,470.1,240.6"/>
	<path class="st7" d="M444,222c0,0-8.1-12.5-26.4-0.6"/>
	<line class="st7" x1="458.2" y1="311.1" x2="458.2" y2="380.2"/>
	<path class="st7" d="M184.9,724.7c0,0,28.5-27,65.5-57c32.2-26.1,70.8-54.6,102.6-69.5c4.1-1.9,8-3.6,11.8-5
		c9.1-3.5,18.9-4.9,28.7-4c2,0.2,4.1,0.4,6.1,0.8"/>
	<path class="st7" d="M378,682.2L378,682.2c-31.3,9.4-51,31.5-65.9,62.5c-9.9,20.6-18.5,44.3-34,61.4c-15.1,16.5-32.8,31-53.3,40.3
		c-37.1,16.9-82.9,15.6-107-21.2c-16.3-24.9-22.7-55.9-26-85c-5.6-50.6,12.1-193.3,89.3-292.2c24.8-31.8,55.8-59.1,94.1-77.4
		c26.9-12.8,57.3-21.1,91.8-23.5l9.7-49.8"/>
	<line class="st7" x1="607.9" y1="867.5" x2="607.9" y2="892.5"/>
	<line class="st7" x1="174" y1="858.6" x2="174" y2="892.5"/>
	<path class="st2" d="M405.8,269.6c0.1,7.5-2.6,14.8-7.5,20.4c-2.8,1.3-5.8,1.9-8.8,1.9c-13.5,0-24.4-12.7-24.4-28.4
		c-0.1-7.5,2.6-14.8,7.5-20.4c2.8-1.3,5.8-1.9,8.8-1.9C394.8,241.2,405.8,253.9,405.8,269.6"/>
	<ellipse class="st7" cx="381.4" cy="269.6" rx="24.4" ry="28.4"/>
	<path class="st0" d="M671,21.4c-41.9-12.5-86,11.4-98.5,53.3c-12.5,41.9,11.4,86,53.3,98.5c41.9,12.5,86-11.4,98.5-53.3
		c0,0,0,0,0,0C736.8,78,712.9,33.9,671,21.4z M631.2,154.8c-6.1-1.8-9.6-8.3-7.8-14.4c1.8-6.1,8.3-9.6,14.4-7.8l0,0
		c6.1,1.8,9.6,8.3,7.8,14.4C643.8,153.2,637.4,156.6,631.2,154.8z M671.2,73.9c-0.2,0.4-0.3,0.8-0.5,1.2
		c-6.5,16-14.6,31.2-24.1,45.6c-2.3,3.5-9.5,1.3-9.6-2.9c0.1-13.1,1.1-26.1,3-39c1.2-9.4,0.3-25.6,7.9-32.9
		c6.8-6.5,19.5-3.7,25.6,2.5C680.2,55.4,674.4,66.3,671.2,73.9L671.2,73.9z"/>
	<path class="st2" d="M725.8,475.4c-15.3,15.6-15.1,40.7,0.5,56c15.6,15.3,40.7,15.1,56-0.5c15.3-15.6,15.1-40.7-0.5-56c0,0,0,0,0,0
		C766.2,459.6,741.1,459.8,725.8,475.4z M775.5,524.2c-2.2,2.3-5.9,2.3-8.2,0.1s-2.3-5.9-0.1-8.2s5.9-2.3,8.2-0.1
		S777.7,521.9,775.5,524.2z M748.8,487.8c5.3,6.9,11,14,15.1,21.6c1,1.8-1.7,4.5-3.5,3.6c-5.7-3.1-11.3-6.6-16.5-10.5
		c-3.9-2.7-11.3-6.1-12.7-11.2c-1.3-4.5,2.9-9.5,7.1-10.7C743.5,479.2,746.2,484.4,748.8,487.8L748.8,487.8z"/>
	<path class="st2" d="M881.1,158.1c11-13.6,9-33.5-4.6-44.5c-13.6-11-33.5-9-44.5,4.6c-11,13.6-9,33.5,4.6,44.5
		C850.1,173.8,870.1,171.7,881.1,158.1C881.1,158.2,881.1,158.2,881.1,158.1z M837.9,123.1c1.6-2,4.5-2.3,6.5-0.7
		c2,1.6,2.3,4.5,0.7,6.5l0,0c-1.6,2-4.5,2.3-6.5,0.7C836.6,128,836.3,125,837.9,123.1z M861.9,150.1c-4.7-5.1-9.8-10.3-13.7-16.1
		c-0.9-1.4,1-3.7,2.5-3.1c4.8,2.1,9.5,4.4,14,7.1c3.3,1.9,9.4,4,10.9,7.9c1.4,3.5-1.6,7.8-4.8,9
		C866.8,156.5,864.2,152.5,861.9,150.1L861.9,150.1z"/>
	<path class="st0" d="M566.7,366.7c11.2,19,10.7,32.5,7.8,54.5c-1.2,8.4,7.8,14,15.1,9.8c64.4-37,124.5-7.7,201.3-25.9
		c28.2-6.6,63.4-20.3,87.5-42.4c8-11.9,12.3-25.9,12.3-40.2c0-60-82-108.7-183.1-108.7c-64.8,0-121.8,20-154.3,50.1c0,0,0,0-0.1,0.1
		c-8.3,12.4-12.8,25.9-12.8,40C540.3,325.5,556.3,348.9,566.7,366.7z"/>
	<path class="st7" d="M540.5,304c0,0.5,0,1,0,1.5c0.4,21,10.9,40.6,23.4,57.5c8.4,11.3,18.3,23.9,15.9,37.8
		c-1,6.1-4.5,11.7-5.3,17.8s2.4,13.8,8.6,14.1c3.9,0.2,7.3-2.6,10.4-5c18.5-14.3,42.4-19.6,65.8-20.6s46.6,2.1,69.9,2.8
		c33.6,1,67.8-3.2,98.9-16.1c27.8-11.5,53.3-30.5,70.1-55.8c16.5-24.8,6.7-60.9-10.8-82.5c-16.5-20.3-40.3-33.2-64.8-42.4
		c-65.8-24.6-140.9-24-205.8,2.9c-19.3,8-37.9,18.4-52.3,33.5C550.5,264.1,540.7,283.7,540.5,304z"/>
	<circle class="st3" cx="810.5" cy="302.6" r="25.3"/>
	<circle class="st3" cx="728.8" cy="302.6" r="25.3"/>
	<circle class="st3" cx="645.5" cy="302.6" r="25.3"/>
	<path class="st0" d="M113.7,594.5c0,0,8.8-33.5,30.9-81.2c0,0,22-42.4,40.3-65.1c0,0,50.9,8.6,64.1,37.3c0,0,17.8,33.7,17.9,56.4
		l-26.2,42.3L113.7,594.5z"/>
	<polygon class="st0" points="431,471.1 432,567.8 407.9,570.3 	"/>
</g>
</svg>
